<svg xmlns="http://www.w3.org/2000/svg" width="77" height="40" viewBox="0 0 77 40" fill="none">
<path d="M53.999 2.86389C54.9275 3.29055 55.6766 3.90549 56.4696 4.55639C58.0758 5.87486 59.8961 7.36914 63.4143 7.36914C66.9326 7.36914 68.7529 5.87471 70.3591 4.55639C71.8628 3.32198 73.1616 2.25586 75.8722 2.25586C76.4953 2.25586 77.0002 1.75085 77.0002 1.12793C77.0002 0.505013 76.4953 0 75.8722 0C72.3542 0 70.5338 1.49443 68.9277 2.81276C67.4239 4.04716 66.1251 5.11328 63.4143 5.11328C60.7035 5.11328 59.4048 4.04716 57.901 2.81276C57.0324 2.0996 56.1341 1.36224 54.941 0.814065C54.3749 0.554039 53.7053 0.802033 53.4452 1.36795C53.1849 1.93417 53.4329 2.60386 53.999 2.86389Z" fill="#223E36"/>
<path d="M1.12778 2.25586C3.83827 2.25586 5.13689 3.32198 6.6405 4.55638C8.24652 5.87486 10.0667 7.36914 13.5848 7.36914C17.1029 7.36914 18.923 5.87471 20.5291 4.55638C22.0327 3.32198 23.3314 2.25586 26.0419 2.25586C28.7524 2.25586 30.0511 3.32198 31.5547 4.55638C33.1607 5.87486 34.9809 7.36914 38.4988 7.36914C42.0169 7.36914 43.8371 5.87471 45.4432 4.55638C46.9014 3.35927 48.1609 2.32534 50.698 2.25917C51.3208 2.24293 51.8124 1.72498 51.7962 1.10221C51.7801 0.479445 51.2597 -0.00962494 50.6394 0.00406061C47.3281 0.0903848 45.5664 1.53669 44.012 2.81276C42.5082 4.04716 41.2096 5.11328 38.4989 5.11328C35.7885 5.11328 34.4898 4.04716 32.9862 2.81276C31.3802 1.49428 29.56 0 26.0421 0C22.524 0 20.7038 1.49443 19.0978 2.81276C17.5942 4.04716 16.2954 5.11328 13.5849 5.11328C10.8744 5.11328 9.57567 4.04716 8.07207 2.81276C6.46604 1.49428 4.64587 0 1.12793 0C0.504861 0 0 0.505012 0 1.12793C0 1.75085 0.504711 2.25586 1.12778 2.25586Z" fill="#223E36"/>
<path d="M75.8721 10.8152C72.354 10.8152 70.5337 12.3095 68.9275 13.6279C67.4237 14.8623 66.125 15.9285 63.4142 15.9285C60.7035 15.9285 59.4047 14.8623 57.901 13.6279C56.2948 12.3095 54.4745 10.8152 50.9563 10.8152C47.4383 10.8152 45.618 12.3096 44.012 13.6279C42.5082 14.8623 41.2096 15.9285 38.4989 15.9285C35.7885 15.9285 34.4898 14.8623 32.9862 13.6279C31.3802 12.3095 29.56 10.8152 26.0421 10.8152C22.524 10.8152 20.7038 12.3096 19.0978 13.6279C17.5942 14.8623 16.2954 15.9285 13.5849 15.9285C10.8744 15.9285 9.57567 14.8623 8.07207 13.6279C6.46604 12.3095 4.64587 10.8152 1.12793 10.8152C0.504861 10.8152 0 11.3202 0 11.9431C0 12.566 0.504861 13.071 1.12793 13.071C3.83842 13.071 5.13704 14.1372 6.64065 15.3716C8.24667 16.69 10.0668 18.1843 13.5849 18.1843C17.103 18.1843 18.9232 16.6899 20.5292 15.3716C22.0328 14.1372 23.3316 13.071 26.0421 13.071C28.7526 13.071 30.0512 14.1372 31.5548 15.3716C33.1608 16.69 34.981 18.1843 38.4989 18.1843C42.017 18.1843 43.8374 16.6899 45.4434 15.3716C46.9471 14.1372 48.2458 13.071 50.9563 13.071C53.667 13.071 54.9658 14.1372 56.4696 15.3716C58.0757 16.69 59.8961 18.1843 63.4142 18.1843C66.9324 18.1843 68.7527 16.6899 70.3589 15.3716C71.8627 14.1372 73.1614 13.071 75.8721 13.071C76.4951 13.071 77 12.566 77 11.9431C77 11.3202 76.4951 10.8152 75.8721 10.8152Z" fill="#223E36"/>
<path d="M75.8721 21.6306C72.354 21.6306 70.5337 23.1249 68.9275 24.4434C67.4237 25.6778 66.125 26.7439 63.4142 26.7439C60.7035 26.7439 59.4047 25.6778 57.901 24.4434C56.2948 23.1249 54.4745 21.6306 50.9563 21.6306C47.4383 21.6306 45.618 23.125 44.012 24.4434C42.5082 25.6778 41.2096 26.7439 38.4989 26.7439C35.7885 26.7439 34.4898 25.6778 32.9862 24.4434C31.3802 23.1249 29.56 21.6306 26.0421 21.6306C22.524 21.6306 20.7038 23.125 19.0978 24.4434C17.5942 25.6778 16.2954 26.7439 13.5849 26.7439C10.8744 26.7439 9.57567 25.6778 8.07207 24.4434C6.46604 23.1249 4.64587 21.6306 1.12793 21.6306C0.504861 21.6306 0 22.1356 0 22.7585C0 23.3815 0.504861 23.8865 1.12793 23.8865C3.83842 23.8865 5.13704 24.9526 6.64065 26.187C8.24667 27.5055 10.0668 28.9998 13.5849 28.9998C17.103 28.9998 18.9232 27.5053 20.5292 26.187C22.0328 24.9526 23.3316 23.8865 26.0421 23.8865C28.7526 23.8865 30.0512 24.9526 31.5548 26.187C33.1608 27.5055 34.981 28.9998 38.4989 28.9998C42.017 28.9998 43.8374 27.5053 45.4434 26.187C46.9471 24.9526 48.2458 23.8865 50.9563 23.8865C53.667 23.8865 54.9658 24.9526 56.4696 26.187C58.0757 27.5055 59.8961 28.9998 63.4142 28.9998C66.9324 28.9998 68.7527 27.5053 70.3589 26.187C71.8627 24.9526 73.1614 23.8865 75.8721 23.8865C76.4951 23.8865 77 23.3815 77 22.7585C77 22.1356 76.4951 21.6306 75.8721 21.6306Z" fill="#223E36"/>
<path d="M75.8721 32.4458C72.354 32.4458 70.5337 33.9402 68.9275 35.2586C67.4237 36.493 66.125 37.5591 63.4142 37.5591C60.7035 37.5591 59.4048 36.493 57.901 35.2586C56.2948 33.9401 54.4745 32.4458 50.9563 32.4458C47.4383 32.4458 45.618 33.9402 44.012 35.2586C42.5082 36.493 41.2096 37.5591 38.499 37.5591C35.7885 37.5591 34.4898 36.493 32.9862 35.2586C31.9555 34.4123 30.8893 33.537 29.3527 32.9842C28.7666 32.7733 28.1204 33.0776 27.9094 33.6638C27.6987 34.2499 28.0027 34.8961 28.589 35.107C29.759 35.5279 30.6314 36.2441 31.555 37.0022C33.161 38.3207 34.9812 39.8149 38.4991 39.8149C42.0172 39.8149 43.8375 38.3205 45.4436 37.0022C46.9472 35.7678 48.2459 34.7017 50.9564 34.7017C53.6672 34.7017 54.966 35.7678 56.4697 37.0022C58.0759 38.3207 59.8962 39.8149 63.4143 39.8149C66.9326 39.8149 68.7529 38.3205 70.3591 37.0022C71.8628 35.7678 73.1616 34.7017 75.8722 34.7017C76.4953 34.7017 77.0002 34.1966 77.0002 33.5737C77.0002 32.9508 76.4951 32.4458 75.8721 32.4458Z" fill="#223E36"/>
<path d="M25.1527 32.4792C22.207 32.7061 20.5552 34.0622 19.0977 35.2586C17.594 36.493 16.2954 37.5591 13.5849 37.5591C10.8744 37.5591 9.57567 36.493 8.07207 35.2586C6.46604 33.9401 4.64587 32.4458 1.12793 32.4458C0.504861 32.4458 0 32.9508 0 33.5737C0 34.1966 0.504861 34.7017 1.12793 34.7017C3.83842 34.7017 5.13704 35.7678 6.64065 37.0022C8.24667 38.3207 10.0668 39.8149 13.5849 39.8149C17.1029 39.8149 18.9232 38.3205 20.5292 37.0022C21.9027 35.8746 23.089 34.9006 25.3261 34.7284C25.9472 34.6806 26.4119 34.1383 26.3639 33.5172C26.316 32.8961 25.7761 32.4308 25.1527 32.4792Z" fill="#223E36"/>
</svg>