<svg xmlns="http://www.w3.org/2000/svg" width="53" height="53" viewBox="0 0 53 53" fill="none">
<path d="M50.1945 20.9177C49.8055 18.7892 47.3498 17.3977 42.4665 16.5385C40.9552 16.2726 39.1946 16.0589 37.1961 15.8975C39.2057 15.1383 40.7059 14.16 41.6641 12.976C42.7011 11.6944 43.07 10.1755 42.7305 8.58352C42.0778 5.52163 40.2055 3.25381 37.1657 1.8431C34.4934 0.602875 30.9201 0 26.2418 0C17.3494 0 9.73037 6.20452 9.73037 11.2838C9.73037 13.3325 10.9285 14.8876 13.2954 15.9227C12.1812 16.0388 11.1359 16.1888 10.1766 16.3835C7.82081 16.8617 6.08092 17.5796 4.85768 18.5785C3.42026 19.7522 2.69141 21.3208 2.69141 23.2406C2.69141 26.0514 4.95705 28.1045 9.4251 29.3505C8.82533 29.6077 8.33756 29.9411 7.98116 30.3726C7.57217 30.8677 7.14889 31.7295 7.45489 33.0233C8.11614 35.8203 9.99568 38.1671 12.8902 39.8099C13.2707 40.0259 13.6552 40.221 14.0397 40.3978C12.952 40.5682 12.0019 40.7595 11.1578 40.98C9.93947 41.2967 8.92708 41.6736 8.06273 42.1312C7.07312 42.6581 6.33505 43.2688 5.80412 43.9997C5.21926 44.7999 4.91285 45.7627 4.91699 46.7844V46.8092V46.8134C4.91285 48.271 5.44492 49.5815 6.4159 50.5029C6.8693 50.9397 7.40137 51.3021 8.04099 51.6116C8.61136 51.887 9.25626 52.1147 10.0119 52.3083C10.0958 52.329 10.1817 52.3394 10.2676 52.3394C10.7407 52.3394 11.1537 52.0185 11.2695 51.5578C11.4093 51.0049 11.0739 50.4408 10.5201 50.301C9.3338 50.0029 8.41147 49.5577 7.85352 49.0142C7.25417 48.418 7.00366 47.7772 6.9872 46.801C6.9872 46.7875 6.9872 46.7844 6.9872 46.7844C6.99134 46.1726 7.14351 45.6882 7.48097 45.214C8.04203 44.42 9.26755 43.7036 10.93 43.1963C13.6117 42.3639 17.4004 42.0223 20.4649 41.8214C22.6963 41.8103 27.1591 41.6996 31.6202 41.0776C32.5771 40.9739 33.5367 40.921 34.4731 40.921H34.4917C37.7223 40.921 40.7014 41.5452 42.8825 42.6798C43.8493 43.1798 44.6277 43.771 45.1328 44.389C45.5966 44.9572 45.8222 45.5048 45.8233 46.0639C45.8233 46.2937 45.7839 46.5184 45.7053 46.7493C45.5821 47.1075 45.3305 47.4418 44.9361 47.7711C44.2157 48.3788 42.9466 48.9513 41.3629 49.383C39.2057 49.9793 36.2845 50.4048 32.6802 50.647C30.0364 50.825 27.0863 50.9089 23.3971 50.9089C22.5721 50.9089 19.9957 50.9275 19.534 50.9296C18.9636 50.9327 18.5009 51.3995 18.504 51.97C18.5071 52.5383 18.9719 53 19.5392 53H19.5444C20.0142 52.9979 22.5876 52.9783 23.3971 52.9783C27.2892 52.9783 33.0197 52.8965 37.831 52.2009C40.42 51.8241 42.4405 51.323 44.0087 50.6687C44.9311 50.2826 45.668 49.8551 46.2611 49.3624C46.9454 48.793 47.4164 48.1408 47.6638 47.4213C47.817 46.9761 47.8936 46.5186 47.8936 46.0641C47.8946 45.031 47.493 43.9979 46.7332 43.0754C46.2032 42.4347 45.5169 41.8476 44.6908 41.329C43.8875 40.8249 42.9456 40.3807 41.8898 40.0101C41.0313 39.7104 40.1108 39.4662 39.146 39.2803C39.5233 39.1258 39.8726 38.9654 40.1905 38.7986C42.0269 37.8353 42.9582 36.625 42.9582 35.2011C42.9582 32.887 41.4268 31.2032 38.4056 30.1875C38.9484 30.1042 39.4741 30.0148 39.9784 29.9179C44.4226 29.064 47.3614 27.7154 48.9626 25.7947C50.1181 24.4087 50.5327 22.7677 50.1945 20.9177ZM11.8006 11.2838C11.8006 9.5075 13.4117 7.19413 15.9051 5.39027C18.8643 3.24946 22.5352 2.07042 26.2418 2.07042C30.6127 2.07042 33.9009 2.61035 36.2943 3.72118C38.7459 4.85892 40.1889 6.59053 40.7058 9.01518C40.9163 10.0025 40.7034 10.8721 40.0549 11.6736C38.16 14.0152 32.7381 15.5283 26.2418 15.5283C16.5243 15.5283 11.8006 14.1399 11.8006 11.2838ZM40.8878 35.2011C40.8878 36.4757 38.3129 37.7409 33.9997 38.5853C33.1594 38.7498 32.2434 38.8993 31.2723 39.0324C29.1411 39.2647 20.1696 39.7524 20.0563 39.7524C17.2734 39.7524 10.7442 37.9381 9.46961 32.547C9.33628 31.9831 9.50522 31.7786 9.57737 31.6912C9.87881 31.3262 10.7645 30.8582 13.2722 30.7009C14.761 30.6074 16.5142 30.6385 18.3964 30.706C20.4015 30.8449 25.973 30.9602 26.4287 30.9602C36.1582 30.9602 40.8878 32.3474 40.8878 35.2011ZM47.3725 24.4689C45.6939 26.4824 40.7016 28.8825 26.4513 28.8825C24.0497 28.8825 19.2708 28.6661 18.5928 28.6409C7.37218 27.8689 4.76172 25.3836 4.76172 23.2406C4.76172 21.5434 5.42401 19.4608 10.5884 18.4126C14.5989 17.5987 20.3561 17.5987 26.4513 17.5987C45.9665 17.5987 47.9997 20.4242 48.158 21.2901C48.3836 22.5245 48.1267 23.5643 47.3725 24.4689Z" fill="#223E36"/>
<path d="M14.8811 52.9307C15.4528 52.9307 15.9163 52.4672 15.9163 51.8955C15.9163 51.3238 15.4528 50.8604 14.8811 50.8604C14.3094 50.8604 13.8459 51.3238 13.8459 51.8955C13.8459 52.4672 14.3094 52.9307 14.8811 52.9307Z" fill="#223E36"/>
</svg>