<svg xmlns="http://www.w3.org/2000/svg" width="77" height="77" viewBox="0 0 77 77" fill="none">
<path d="M38.5 61.0086C26.0888 61.0086 15.9915 50.9113 15.9915 38.5C15.9915 28.8553 22.1226 20.2898 31.2478 17.1858C32.0341 16.9185 32.8884 17.339 33.156 18.1253C33.4234 18.9115 33.0029 19.7659 32.2165 20.0333C24.3109 22.7224 18.9993 30.1436 18.9993 38.5C18.9993 49.2528 27.7472 58.0007 38.5 58.0007C49.2527 58.0007 58.0007 49.2528 58.0007 38.5C58.0007 30.1437 52.689 22.7224 44.7834 20.0333C43.997 19.7659 43.5766 18.9115 43.8439 18.1253C44.1115 17.3389 44.966 16.9182 45.7521 17.1858C54.8775 20.2898 61.0086 28.8553 61.0086 38.5C61.0085 50.9112 50.9111 61.0086 38.5 61.0086Z" fill="#223E36"/>
<path d="M38.5 18.9993C39.3306 18.9993 40.0039 18.3259 40.0039 17.4954C40.0039 16.6648 39.3306 15.9915 38.5 15.9915C37.6694 15.9915 36.9961 16.6648 36.9961 17.4954C36.9961 18.3259 37.6694 18.9993 38.5 18.9993Z" fill="#223E36"/>
<path d="M38.5 12.9838C37.6694 12.9838 36.9961 12.3105 36.9961 11.4799V1.50391C36.9961 0.673299 37.6694 0 38.5 0C39.3306 0 40.0039 0.673299 40.0039 1.50391V11.4799C40.0039 12.3104 39.3306 12.9838 38.5 12.9838Z" fill="#223E36"/>
<path d="M24.9913 16.604C24.4715 16.604 23.9661 16.3344 23.6876 15.8518L18.6996 7.21242C18.2842 6.4931 18.5308 5.57331 19.25 5.15809C19.9692 4.74271 20.8891 4.9892 21.3043 5.70852L26.2922 14.3479C26.7076 15.0672 26.4609 15.987 25.7417 16.4022C25.505 16.539 25.2464 16.604 24.9913 16.604Z" fill="#223E36"/>
<path d="M15.0985 26.4939C14.8432 26.4939 14.5849 26.4289 14.3479 26.2922L5.70852 21.3042C4.9892 20.889 4.74271 19.9691 5.15809 19.2499C5.57346 18.5306 6.4931 18.2844 7.21242 18.6995L15.8518 23.6875C16.5711 24.1027 16.8176 25.0226 16.4022 25.7418C16.1237 26.2241 15.6182 26.4939 15.0985 26.4939Z" fill="#223E36"/>
<path d="M11.4799 40.0039H1.50391C0.673299 40.0039 0 39.3306 0 38.5C0 37.6694 0.673299 36.9961 1.50391 36.9961H11.4799C12.3105 36.9961 12.9838 37.6694 12.9838 38.5C12.9838 39.3306 12.3104 40.0039 11.4799 40.0039Z" fill="#223E36"/>
<path d="M6.46182 58.5021C5.94207 58.5021 5.43661 58.2325 5.15809 57.75C4.74271 57.0307 4.9892 56.1109 5.70852 55.6957L14.3479 50.7077C15.067 50.2923 15.9868 50.5386 16.4022 51.2581C16.8176 51.9774 16.5709 52.8972 15.8518 53.3124L7.21242 58.3005C6.97556 58.4372 6.71703 58.5021 6.46182 58.5021Z" fill="#223E36"/>
<path d="M20.0006 72.0437C19.7454 72.0437 19.487 71.9787 19.25 71.842C18.5307 71.4268 18.2842 70.507 18.6996 69.7877L23.6876 61.1483C24.103 60.429 25.0226 60.1828 25.7419 60.5979C26.4613 61.0131 26.7077 61.9331 26.2924 62.6522L21.3045 71.2916C21.0258 71.774 20.5204 72.0437 20.0006 72.0437Z" fill="#223E36"/>
<path d="M38.5 77C37.6694 77 36.9961 76.3267 36.9961 75.4961V65.5203C36.9961 64.6897 37.6694 64.0164 38.5 64.0164C39.3306 64.0164 40.0039 64.6897 40.0039 65.5203V75.4961C40.0039 76.3267 39.3306 77 38.5 77Z" fill="#223E36"/>
<path d="M56.9994 72.0436C56.4796 72.0436 55.9741 71.7739 55.6956 71.2915L50.7076 62.6522C50.2922 61.9328 50.5389 61.013 51.258 60.5978C51.9774 60.1824 52.8972 60.4288 53.3124 61.1482L58.3004 69.7876C58.7158 70.5069 58.4691 71.4267 57.75 71.8419C57.5131 71.9786 57.2546 72.0436 56.9994 72.0436Z" fill="#223E36"/>
<path d="M70.5381 58.502C70.2829 58.502 70.0246 58.437 69.7876 58.3003L61.1482 53.3125C60.4289 52.8973 60.1824 51.9773 60.5978 51.2582C61.0132 50.539 61.933 50.2926 62.6521 50.7077L71.2915 55.6957C72.0108 56.111 72.2573 57.0307 71.8419 57.7501C71.5634 58.2324 71.0579 58.502 70.5381 58.502Z" fill="#223E36"/>
<path d="M75.4961 40.0039H65.5203C64.6897 40.0039 64.0164 39.3306 64.0164 38.5C64.0164 37.6694 64.6897 36.9961 65.5203 36.9961H75.4961C76.3267 36.9961 77 37.6694 77 38.5C77 39.3306 76.3267 40.0039 75.4961 40.0039Z" fill="#223E36"/>
<path d="M61.9015 26.4941C61.3818 26.4941 60.8763 26.2245 60.5976 25.742C60.1822 25.0227 60.4289 24.1029 61.1481 23.6877L69.7874 18.6997C70.5067 18.2841 71.4264 18.5308 71.8417 19.2501C72.2571 19.9694 72.0106 20.8892 71.2913 21.3044L62.652 26.2924C62.4152 26.4291 62.1566 26.4941 61.9015 26.4941Z" fill="#223E36"/>
<path d="M52.0087 16.6039C51.7535 16.6039 51.4951 16.539 51.2581 16.4023C50.5388 15.987 50.2923 15.0671 50.7076 14.3479L55.6957 5.70859C56.111 4.98943 57.0308 4.74309 57.75 5.15816C58.4693 5.57339 58.7158 6.49318 58.3004 7.2125L53.3124 15.8518C53.034 16.3341 52.5284 16.6039 52.0087 16.6039Z" fill="#223E36"/>
</svg>