<svg width="152" height="45" viewBox="0 0 152 45" fill="none" xmlns="http://www.w3.org/2000/svg">
<path d="M123.465 14.753C122.693 8.67389 116.251 7.67583 112.667 11.8042C111.896 12.6208 111.374 13.6415 111.08 14.8664C111.011 15.0479 111.011 15.2293 111.011 15.3881C111.011 16.1593 111.533 16.5676 112.304 16.5676H121.922C122.92 16.5676 123.465 16.0459 123.465 15.0932V14.753ZM56.0728 14.753C55.3016 8.67389 48.8596 7.67583 45.2756 11.8042C44.5044 12.6208 43.9827 13.6415 43.6878 14.8664C43.6198 15.0479 43.6198 15.2293 43.6198 15.3881C43.6198 16.1593 44.1415 16.5676 44.9127 16.5676H54.5304C55.5284 16.5676 56.0728 16.0459 56.0728 15.0932V14.753ZM29.6242 5.65702C31.3255 5.13531 33.1174 5.29409 34.297 5.95191C37.2004 7.53973 36.8375 11.6227 34.4784 13.2105C33.0721 14.1632 31.2801 14.0271 29.5108 12.9156C26.9703 11.3278 24.5432 12.099 23.4317 15.2293C22.7285 17.1801 22.7739 19.9474 22.7739 22.7828C22.7739 24.1438 22.7739 25.4368 22.842 26.7978C22.91 30.5858 23.1368 31.6293 24.3164 32.2871C24.8381 32.65 25.9042 32.9903 27.4467 33.3532C29.1479 33.8295 29.5108 35.4174 28.9891 36.4154C28.6262 37.0732 27.8776 37.5269 26.9249 37.5269H13.3831C12.0901 37.4135 11.2055 36.4608 11.2055 35.3947C11.2055 34.6234 11.6818 33.8522 12.5665 33.5573C14.6307 32.8542 15.2885 32.3778 15.5833 30.7219C15.7648 29.9507 15.8102 28.5897 15.8782 26.7751C15.9463 23.7582 15.9463 21.0589 15.8782 17.974C15.8782 15.6149 15.4699 14.4354 14.6987 13.6642C14.2904 13.3013 13.7006 12.893 12.816 12.4847C10.9787 11.4866 11.2282 9.42243 12.9975 8.65121L13.4058 8.42437C13.7006 8.31096 14.4038 7.94803 15.6514 7.3129C16.8309 6.72313 17.9651 6.20142 18.9631 5.77044C20.6644 4.95385 21.7305 5.36214 22.0934 6.83655C22.7512 8.53779 23.7947 8.90072 25.5186 7.78924C27.1291 6.79118 28.2632 6.06532 29.6242 5.65702ZM140.341 0.167695C141.294 0.167695 142.042 0.870873 142.224 1.86893L142.337 4.8858C142.405 5.77044 142.995 6.24679 144.038 6.24679C146.102 6.24679 147.645 6.24679 148.643 6.17874C150.299 6.17874 151.297 7.42631 151.297 8.71925C151.297 10.0122 150.299 11.2598 148.643 11.2598C147.531 11.1917 145.989 11.1917 143.925 11.1917C142.927 11.1917 142.337 11.7815 142.337 12.7795C142.337 14.6169 142.337 17.2708 142.269 20.8094V28.9073C142.269 32.6273 145.694 33.4439 149.346 30.9715C150.639 30.0868 152 30.9034 152 32.3324C152 33.3305 151.183 34.4647 149.936 35.6896C148.461 37.164 146.034 38.4115 143.199 38.4115C138.118 38.4115 135.283 34.873 135.283 30.7446C135.283 28.0907 135.283 24.416 135.351 19.766V14.1632C135.351 12.462 135.124 11.7361 134.466 11.3278C134.103 11.1464 133.513 10.9649 132.765 10.8061C131.767 10.5793 131.222 9.85341 131.222 8.96877C131.222 8.31096 131.585 7.72119 132.039 7.19948C134.216 5.24873 136.349 3.18456 138.481 1.00697C139.116 0.462576 139.706 0.167695 140.341 0.167695ZM118.565 5.36214C123.283 5.36214 127.411 7.49436 129.657 11.2144C130.769 13.0971 131.313 15.2293 131.245 17.6564C131.245 19.5391 130.247 20.4918 128.183 20.4918H112.781C111.42 20.4918 110.717 21.1496 110.717 22.4879V22.9643C111.306 29.5878 115.208 32.8315 119.926 32.8315C122.875 32.8315 125.415 31.72 127.479 29.4063C128.364 28.5217 129.612 28.4536 130.383 29.1795C131.041 29.8373 131.086 30.7219 130.564 31.6066C128.727 34.9637 125.778 37.0279 122.716 37.7991C121.174 38.2074 119.654 38.4569 118.111 38.4569C112.214 38.4569 107.359 35.5535 104.774 30.6085C103.481 28.1361 102.823 25.3007 102.823 22.1023C102.823 15.5469 106.067 10.2844 110.853 7.47168C113.234 6.06532 115.775 5.36214 118.565 5.36214ZM90.4605 5.36214C92.8876 5.36214 95.5416 5.77044 97.2428 6.31484C99.375 6.9046 99.7833 7.60778 99.7833 9.74V14.2313C99.7833 15.6376 98.7172 16.5903 97.6511 16.5903C96.6984 16.5903 95.8818 15.9325 95.5869 14.821C94.7023 11.2825 92.933 9.26365 89.8027 9.26365C87.1942 9.26365 85.198 10.6246 85.198 12.8703C85.198 14.7076 86.2641 16.114 88.8047 17.475C90.642 18.3596 92.5928 19.3577 94.5889 20.4238C98.8987 22.6014 101.031 25.9812 101.031 29.2702C101.031 32.1737 99.5565 35.1225 95.9499 37.0052C94.1125 37.9579 91.8215 38.4115 88.9181 38.4115C85.6744 38.4115 82.2492 37.7084 79.6407 36.4608C78.3477 35.871 77.9848 35.2813 77.9848 33.512V28.6124C77.9848 27.6597 78.4611 26.9112 79.0963 26.5482C80.1624 25.9585 81.5687 26.4348 82.0451 27.9546C83.2926 32.2644 85.7651 34.442 89.2583 34.442C92.0937 34.442 94.0898 32.9676 94.0898 31.0849C94.0898 29.2475 92.6835 27.4782 89.78 26.0719L87.5571 24.9604C86.8993 24.6655 85.9012 24.1892 84.6536 23.5541C80.4119 21.4218 78.2797 18.5864 78.2797 14.753C78.3023 9.08219 83.1339 5.36214 90.4605 5.36214ZM51.1733 5.36214C55.8914 5.36214 60.0197 7.49436 62.2653 11.2144C63.3768 13.0971 63.9212 15.2293 63.8532 17.6564C63.8532 19.5391 62.8551 20.4918 60.7909 20.4918H45.389C44.0281 20.4918 43.3249 21.1496 43.3249 22.4879V22.9643C43.9146 29.5878 47.8162 32.8315 52.5343 32.8315C55.4831 32.8315 58.0236 31.72 60.0877 29.4063C60.9724 28.5217 62.22 28.4536 62.9912 29.1795C63.649 29.8373 63.6944 30.7219 63.1727 31.6066C61.3353 34.9637 58.3865 37.0279 55.3243 37.7991C53.7818 38.2074 52.2621 38.4569 50.7196 38.4569C44.822 38.4569 39.9678 35.5535 37.3819 30.6085C36.0889 28.1361 35.4311 25.3007 35.4311 22.1023C35.4311 15.5469 38.6748 10.2844 43.461 7.47168C45.8427 6.06532 48.3832 5.36214 51.1733 5.36214ZM9.88987 0.303794C10.2755 -0.0364538 10.593 -0.0818201 10.8426 0.122328C10.9787 0.303794 10.9787 0.689408 10.7972 0.938923C7.98448 4.97653 6.07909 9.01414 4.9903 14.0044C4.46859 16.5223 4.17371 19.2216 4.17371 22.1704C4.17371 28.0226 5.30786 32.8995 7.25862 37.0959C8.21131 39.1828 9.39084 41.2696 10.7745 43.3111C11.0694 43.6514 10.956 43.9236 10.8652 44.0823C10.6384 44.3092 10.2074 44.2184 9.86718 43.9009C3.03955 37.3681 0 30.2002 0 22.1704C0 13.7549 3.28906 6.4963 9.88987 0.303794ZM63.7851 0.0315958C63.9666 0.0315958 64.1707 0.122328 64.3522 0.371843C71.2479 6.88192 74.2874 14.0952 74.2874 22.125C74.2874 30.4951 70.9984 37.7537 64.3976 43.9236C64.1707 44.1504 63.9666 44.2638 63.7851 44.2638C63.3541 44.2638 63.2634 43.7421 63.4902 43.3111C66.3029 39.3189 68.1856 35.2359 69.3425 30.2456C69.8642 27.7278 70.1591 25.0285 70.1591 22.0796C70.1591 16.3408 68.9796 11.3959 67.0742 7.15412C66.0761 5.06726 64.8966 3.02578 63.5129 0.984289C63.1727 0.553309 63.2634 0.0315958 63.7851 0.0315958Z" fill="currentColor"/>
</svg>
